<?xml version="1.0" encoding="UTF-8" standalone="no"?>
<svg width="500px" height="500px" viewBox="0 0 500 500" version="1.1" xmlns="http://www.w3.org/2000/svg" xmlns:xlink="http://www.w3.org/1999/xlink">
    <!-- Generator: Sketch 42 (36781) - http://www.bohemiancoding.com/sketch -->
    <title>Group</title>
    <desc>Created with Sketch.</desc>
    <defs></defs>
    <g id="Page-1" stroke="none" stroke-width="1" fill="none" fill-rule="evenodd">
        <g id="Group">
            <path d="M250,500 C111.928813,500 0,388.071187 0,250 C0,111.928813 111.928813,2.84217094e-14 250,2.84217094e-14 C388.071187,2.84217094e-14 500,111.928813 500,250 C500,388.071187 388.071187,500 250,500 Z M250,450 C360.45695,450 450,360.45695 450,250 C450,139.54305 360.45695,50 250,50 C139.54305,50 50,139.54305 50,250 C50,360.45695 139.54305,450 250,450 Z" id="Combined-Shape" fill="#16A085"></path>
            <text id="u" font-family="LucidaGrande, Lucida Grande" font-size="288" font-weight="normal" fill="#CFCFCF">
                <tspan x="161" y="359">u</tspan>
            </text>
            <text id="I" font-family="LucidaGrande, Lucida Grande" font-size="288" font-weight="normal" fill="#CFCFCF">
                <tspan x="257" y="359">I</tspan>
            </text>
        </g>
    </g>
</svg>